<svg xmlns="http://www.w3.org/2000/svg" width="61.011" height="57.91" viewBox="0 0 61.011 57.91">
  <g id="Group_59" data-name="Group 59" transform="translate(-140 -63)">
    <g id="Group_58" data-name="Group 58" transform="translate(140 63)">
      <path id="Path_65" data-name="Path 65" d="M170.505,63a30.5,30.5,0,0,0-14.172,57.515A1.787,1.787,0,1,0,158,117.352a26.93,26.93,0,1,1,24.67.177,1.787,1.787,0,1,0,1.621,3.186A30.5,30.5,0,0,0,170.505,63Zm0,0" transform="translate(-140 -63)" fill="#ec0060"/>
    </g>
    <path id="Path_66" data-name="Path 66" d="M257.26,173.6a21.186,21.186,0,1,0-27.42,7.675,1.787,1.787,0,0,0,1.6-3.195,17.621,17.621,0,1,1,15.754,0,1.787,1.787,0,1,0,1.6,3.195,21.308,21.308,0,0,0,8.458-7.675Zm0,0" transform="translate(-68.816 -68.816)" fill="#ec0060"/>
    <path id="Path_67" data-name="Path 67" d="M320.026,231.14a11.886,11.886,0,1,0-17.2,10.63,1.787,1.787,0,0,0,1.6-3.195,8.311,8.311,0,1,1,7.427,0,1.787,1.787,0,1,0,1.6,3.195,11.837,11.837,0,0,0,6.568-10.629Zm0,0" transform="translate(-137.635 -137.635)" fill="#ec0060"/>
  </g>
</svg>
