<svg xmlns="http://www.w3.org/2000/svg" width="63.934" height="54.667" viewBox="0 0 63.934 54.667">
  <g id="Group_1689" data-name="Group 1689" transform="translate(-505 -40.841)">
    <g id="Group_1688" data-name="Group 1688" transform="translate(505 40.841)">
      <path id="Path_9136" data-name="Path 9136" d="M505.949,73.741A1.3,1.3,0,0,0,505,74.993a10.322,10.322,0,0,0,3.116,7.371,10.442,10.442,0,0,0,17.841-7.371,1.3,1.3,0,0,0-.873-1.228l-7.84-16.793,14.741-4.23a5.731,5.731,0,0,0,3.679,2.774v25.8h-3.595a5.234,5.234,0,0,0-5.261,5.178v.756a5.249,5.249,0,0,0-4.167,5.1v1.823A1.375,1.375,0,0,0,524,95.508h25.943a1.375,1.375,0,0,0,1.354-1.334V92.351a5.249,5.249,0,0,0-4.168-5.1V86.49a5.233,5.233,0,0,0-5.261-5.178h-3.595v-25.8a5.719,5.719,0,0,0,4.407-5.558c0-.094,0-.188-.007-.282L556.2,45.795l-7.271,15.574a1.3,1.3,0,0,0-.949,1.253,10.319,10.319,0,0,0,3.116,7.371,10.441,10.441,0,0,0,17.841-7.371,1.3,1.3,0,0,0-.873-1.228l-7.823-16.758,4.32-1.24a1.3,1.3,0,1,0-.718-2.5l-21.891,6.281a5.708,5.708,0,0,0-10.692,2.785c0,.094,0,.188.007.281L509.376,56.52a1.3,1.3,0,0,0,.718,2.5l3.148-.9-7.293,15.621Zm59.2-12.484H551.824l6.664-14.273ZM558.488,70.4a7.9,7.9,0,0,1-7.792-6.538h15.524a7.787,7.787,0,0,1-7.732,6.538ZM525.245,92.351a2.627,2.627,0,0,1,2.657-2.573h18.129a2.627,2.627,0,0,1,2.657,2.573V92.9H525.245v-.552Zm4.168-5.861a2.627,2.627,0,0,1,2.657-2.573h9.794a2.627,2.627,0,0,1,2.656,2.573v.683H529.413V86.49Zm7.553-33.428a3.109,3.109,0,0,1-2.944-2.123,1.292,1.292,0,0,0-.073-.254,3.107,3.107,0,1,1,3.018,2.377Zm-21.455,6.293,6.663,14.273H508.847Zm0,23.416a7.9,7.9,0,0,1-7.792-6.538h15.524a7.786,7.786,0,0,1-7.732,6.538Zm0,0" transform="translate(-505 -40.841)" fill="#ec0060"/>
    </g>
  </g>
</svg>
