<svg xmlns="http://www.w3.org/2000/svg" width="49.406" height="57.934" viewBox="0 0 49.406 57.934">
  <g id="Group_61" data-name="Group 61" transform="translate(-37.681 0)">
    <path id="Path_73" data-name="Path 73" d="M86.191,10A96.371,96.371,0,0,1,63,.169a1.218,1.218,0,0,0-1.239,0A93.73,93.73,0,0,1,38.578,10a1.218,1.218,0,0,0-.9,1.175V23.631A35.822,35.822,0,0,0,48.559,49.8c5.343,5.235,11.566,8.13,13.825,8.13s8.483-2.895,13.825-8.13A35.823,35.823,0,0,0,87.087,23.631V11.179A1.218,1.218,0,0,0,86.191,10ZM84.65,23.631A33.434,33.434,0,0,1,74.5,48.063C69.25,53.21,63.633,55.5,62.385,55.5s-6.866-2.286-12.12-7.434A33.434,33.434,0,0,1,40.118,23.631V12.1A95.979,95.979,0,0,0,62.385,2.631,99.014,99.014,0,0,0,84.65,12.1Z" transform="translate(0 0)" fill="#ec0060"/>
    <path id="Path_74" data-name="Path 74" d="M89.4,99.716a1.219,1.219,0,0,0-1.581-.687c-2.177.858-4.411,1.647-6.641,2.347a1.219,1.219,0,0,0-.854,1.163v4.706a1.219,1.219,0,0,0,2.437,0v-3.815c2-.647,4-1.363,5.952-2.133A1.218,1.218,0,0,0,89.4,99.716Z" transform="translate(-37.821 -87.748)" fill="#ec0060"/>
    <path id="Path_75" data-name="Path 75" d="M171.424,88.651a1.219,1.219,0,0,0,.489-.1l.022-.01a1.219,1.219,0,1,0-.984-2.23l-.02.008a1.218,1.218,0,0,0,.493,2.333Z" transform="translate(-117.526 -76.452)" fill="#ec0060"/>
    <path id="Path_76" data-name="Path 76" d="M312.494,345.727a1.219,1.219,0,0,0-1.687.354,29.653,29.653,0,0,1-3.5,4.374,31.136,31.136,0,0,1-3.5,3.11,1.219,1.219,0,1,0,1.478,1.938,33.59,33.59,0,0,0,3.77-3.354,32.074,32.074,0,0,0,3.79-4.735A1.219,1.219,0,0,0,312.494,345.727Z" transform="translate(-235.59 -306.432)" fill="#ec0060"/>
    <path id="Path_77" data-name="Path 77" d="M277.241,432.133l-.07.041a1.219,1.219,0,1,0,1.221,2.109l.081-.047a1.219,1.219,0,1,0-1.232-2.1Z" transform="translate(-211.852 -383.089)" fill="#ec0060"/>
    <path id="Path_78" data-name="Path 78" d="M129.583,163.586a3.963,3.963,0,0,0-5.6,5.6l7.2,7.2a3.964,3.964,0,0,0,5.6,0L151.8,161.363a3.963,3.963,0,0,0-5.6-5.6l-12.22,12.22Zm18.337-6.1a1.525,1.525,0,1,1,2.157,2.157l-15.022,15.022a1.527,1.527,0,0,1-2.158,0l-7.2-7.2a1.526,1.526,0,0,1,2.157-2.158l5.255,5.255a1.219,1.219,0,0,0,1.723,0Z" transform="translate(-75.506 -137.106)" fill="#ec0060"/>
  </g>
</svg>
