<svg xmlns="http://www.w3.org/2000/svg" width="45.392" height="54.935" viewBox="0 0 45.392 54.935">
  <g id="Group_4237" data-name="Group 4237" transform="translate(-2296.351 2848.874)">
    <path id="Path_11660" data-name="Path 11660" d="M2380.123-2791.733a.806.806,0,0,0,.95-.629,14.956,14.956,0,0,0,.3-2.982,14.794,14.794,0,0,0-14.755-14.8,14.794,14.794,0,0,0-14.755,14.8,14.794,14.794,0,0,0,14.755,14.8,14.708,14.708,0,0,0,13.118-8.018.809.809,0,0,0-.346-1.087.8.8,0,0,0-1.085.347,13.1,13.1,0,0,1-11.688,7.145,13.18,13.18,0,0,1-13.145-13.185,13.18,13.18,0,0,1,13.145-13.185,13.18,13.18,0,0,1,13.145,13.185,13.326,13.326,0,0,1-.267,2.658.808.808,0,0,0,.627.953Zm0,0" transform="translate(-47.571 -33.189)" fill="#ec0060"/>
    <g id="Group_4236" data-name="Group 4236" transform="translate(2296.351 -2848.874)">
      <path id="Path_11661" data-name="Path 11661" d="M2410.1-2766.726a.806.806,0,0,0-.652-.55l-5.245-.753-2.335-4.771a.81.81,0,0,0-1.445,0l-2.335,4.771-5.245.754a.813.813,0,0,0-.446,1.378l3.8,3.7-.906,5.237a.811.811,0,0,0,1.169.852l4.685-2.483,4.686,2.483a.811.811,0,0,0,1.169-.852l-.906-5.237,3.8-3.7a.809.809,0,0,0,.205-.828Zm-5.433,3.669a.808.808,0,0,0-.232.718l.7,4.037-3.612-1.914a.8.8,0,0,0-.752,0l-3.612,1.914.7-4.037a.81.81,0,0,0-.232-.718l-2.931-2.854,4.044-.581a.8.8,0,0,0,.609-.443l1.8-3.678,1.8,3.678a.805.805,0,0,0,.608.443l4.044.581Zm0,0" transform="translate(-2378.449 2784.064)" fill="#ec0060"/>
      <path id="Path_11662" data-name="Path 11662" d="M2341.632-2800.891l-7.866-13.666a20.3,20.3,0,0,0,5.56-13.977,20.333,20.333,0,0,0-20.279-20.34,20.247,20.247,0,0,0-9.829,2.545.808.808,0,0,0-.313,1.1.8.8,0,0,0,1.094.314,18.639,18.639,0,0,1,9.048-2.342,18.718,18.718,0,0,1,18.669,18.726,18.719,18.719,0,0,1-18.669,18.726,18.719,18.719,0,0,1-18.669-18.726,18.721,18.721,0,0,1,6.656-14.334.809.809,0,0,0,.1-1.137.8.8,0,0,0-1.134-.1,20.332,20.332,0,0,0-7.23,15.569,20.3,20.3,0,0,0,5.578,14l-2.228,3.87a.806.806,0,0,0,1.394.808l2.025-3.519a20.24,20.24,0,0,0,8.622,4.586l-6.945,12.065-1.776-5.608a.8.8,0,0,0-.939-.544l-5.731,1.261,2.866-4.979a.808.808,0,0,0-.294-1.1.8.8,0,0,0-1.1.295l-3.778,6.564a.812.812,0,0,0,.87,1.192l6.794-1.495,2.107,6.649a.809.809,0,0,0,1.464.159l8.125-14.116a20.285,20.285,0,0,0,3.226.259,20.312,20.312,0,0,0,3.252-.263l4.88,8.478a.8.8,0,0,0,.7.4.8.8,0,0,0,.4-.108.808.808,0,0,0,.294-1.1l-4.612-8.013a20.229,20.229,0,0,0,8.616-4.6l6.751,11.728-5.731-1.261a.8.8,0,0,0-.939.545l-1.776,5.608-.43-.747a.8.8,0,0,0-1.1-.295.808.808,0,0,0-.294,1.1l1.341,2.331a.809.809,0,0,0,1.464-.159l2.106-6.649,6.795,1.495a.812.812,0,0,0,.869-1.193Zm0,0" transform="translate(-2296.35 2848.874)" fill="#ec0060"/>
    </g>
  </g>
</svg>
