<svg xmlns="http://www.w3.org/2000/svg" width="46.385" height="62.104" viewBox="0 0 46.385 62.104">
  <g id="Group_4272" data-name="Group 4272" transform="translate(188.6 4342.193)">
    <path id="Path_11735" data-name="Path 11735" d="M-164.208-4233.738c-.05-.1-.15-.15-.2-.2a1.276,1.276,0,0,0-1.8.2c-.9,1.1-2.1,2.5-3.4,4-.3.35-.6.65-.85,1-1.35-1.849-2.9-3.648-4.249-5.2-.75-.85-1.45-1.649-1.9-2.249-.05-.1-.15-.15-.2-.2a1.276,1.276,0,0,0-1.8.2c-.5.6-1.2,1.4-1.949,2.3-3.4,3.849-8.048,9.247-8.048,13.9a11.042,11.042,0,0,0,3.2,7.748,11.817,11.817,0,0,0,2.7,2c-.15.549-.3,1.049-.4,1.6a12.413,12.413,0,0,0-.3,2.7,17.963,17.963,0,0,0,5.348,12.846,18.139,18.139,0,0,0,12.846,5.348,18.051,18.051,0,0,0,12.846-5.348,18.138,18.138,0,0,0,5.348-12.846c0-7.8-8-17.044-13.8-23.792C-162.108-4231.239-163.308-4232.639-164.208-4233.738Zm-19.444,19.793a8.47,8.47,0,0,1-2.449-5.948c.05-3.8,4.349-8.8,7.448-12.4.35-.4.7-.8,1-1.149.3.4.65.75,1,1.149a65.95,65.95,0,0,1,5,6.3,18.538,18.538,0,0,1,1.749,3.2v.05a3.9,3.9,0,0,1,.25.7.184.184,0,0,0,.05.15l.15.6c0,.1.05.2.05.3.05.15.05.3.1.4a3.3,3.3,0,0,1,.05.7,8.323,8.323,0,0,1-1,4,10.958,10.958,0,0,1-1.45,1.949,9.382,9.382,0,0,1-1.949,1.45,8.322,8.322,0,0,1-4,1,4.82,4.82,0,0,1-.85-.05h-.1c-.25-.05-.5-.05-.75-.1a.184.184,0,0,1-.15-.05c-.2-.05-.45-.1-.65-.15-.05,0-.1-.05-.15-.05A8.327,8.327,0,0,1-183.652-4213.945Zm29.391,19.044a15.567,15.567,0,0,1-11.047,4.6,15.393,15.393,0,0,1-11.047-4.6,15.735,15.735,0,0,1-4.549-11.047,11.415,11.415,0,0,1,.25-2.2l.3-1.2a2.153,2.153,0,0,1,.25.05c.1.05.25.05.35.1h.05c.1,0,.25.05.35.05.2.05.4.05.6.1a7.408,7.408,0,0,0,1.05.05,11.041,11.041,0,0,0,7.748-3.2,5.359,5.359,0,0,0,.7-.8,10.933,10.933,0,0,0,2.5-6.947,5.433,5.433,0,0,0-.05-.9c0-.15-.05-.25-.05-.4-.05-.15-.05-.35-.1-.5-.05-.2-.1-.35-.15-.55-.05-.15-.05-.25-.1-.4a5.628,5.628,0,0,0-.25-.65c-.05-.1-.05-.2-.1-.3.05,0,.05-.05,0-.1a19.58,19.58,0,0,0-1.5-2.849c.45-.55.9-1.049,1.3-1.5.9-1,1.7-2,2.449-2.9.75.9,1.6,1.85,2.449,2.9,5.548,6.4,13.2,15.246,13.2,22.143A15.394,15.394,0,0,1-154.261-4194.9Z" transform="translate(0 -92.337)" fill="#e00c7b"/>
    <path id="Path_11736" data-name="Path 11736" d="M81.8-4264.616c0-.016,0-.032,0-.048s0-.051,0-.077l-.005-.009c-.109-2.939-3.784-7.354-5.948-9.833l-.245-.4c-.05-.05-.1-.15-.2-.2a1.276,1.276,0,0,0-1.8.2c-.25.35-.7.85-1.15,1.4-2.1,2.449-5.048,5.848-5.048,8.847a7.176,7.176,0,0,0,2.1,5.1,7.176,7.176,0,0,0,5.1,2.1,7.176,7.176,0,0,0,5.1-2.1,7.171,7.171,0,0,0,2.1-4.979Zm-3.9,3.174a4.6,4.6,0,0,1-3.3,1.35,4.6,4.6,0,0,1-3.3-1.35,4.6,4.6,0,0,1-1.35-3.3c0-2.1,2.549-5.048,4.4-7.2l.25-.3.25.3c1.849,2.149,4.4,5.1,4.4,7.2A4.6,4.6,0,0,1,77.9-4261.442Z" transform="translate(-224.01 -58.385)" fill="#e00c7b"/>
    <path id="Path_11737" data-name="Path 11737" d="M-2.188-4324.875a5.466,5.466,0,0,0-5.46,5.46,5.465,5.465,0,0,0,5.46,5.459,5.466,5.466,0,0,0,5.46-5.459A5.466,5.466,0,0,0-2.188-4324.875Zm0,10.074a4.619,4.619,0,0,1-4.614-4.614,4.62,4.62,0,0,1,4.614-4.614,4.62,4.62,0,0,1,4.614,4.614A4.619,4.619,0,0,1-2.188-4314.8Z" transform="translate(-158.34 -15.155)" fill="#e00c7b"/>
    <path id="Path_11738" data-name="Path 11738" d="M20.39-4299.68H18.7v-1.691a.423.423,0,0,0-.423-.423.423.423,0,0,0-.423.423v1.691H16.161a.423.423,0,0,0-.423.423.423.423,0,0,0,.423.422h1.692v1.692a.423.423,0,0,0,.423.423.423.423,0,0,0,.423-.423v-1.692H20.39a.423.423,0,0,0,.423-.422A.423.423,0,0,0,20.39-4299.68Z" transform="translate(-178.804 -35.351)" fill="#e00c7b"/>
    <path id="Path_11739" data-name="Path 11739" d="M89.4-4342.194a2.808,2.808,0,0,0-2.805,2.805,2.809,2.809,0,0,0,2.805,2.806,2.809,2.809,0,0,0,2.806-2.806A2.809,2.809,0,0,0,89.4-4342.194Zm0,5.177a2.374,2.374,0,0,1-2.371-2.372,2.374,2.374,0,0,1,2.371-2.371,2.374,2.374,0,0,1,2.371,2.371A2.374,2.374,0,0,1,89.4-4337.017Z" transform="translate(-240.808)" fill="#e00c7b"/>
    <path id="Path_11740" data-name="Path 11740" d="M101-4329.248h-.869v-.869a.217.217,0,0,0-.217-.217.217.217,0,0,0-.217.217v.869h-.869a.217.217,0,0,0-.217.217.217.217,0,0,0,.217.217H99.7v.869a.217.217,0,0,0,.217.217.217.217,0,0,0,.217-.217v-.869H101a.217.217,0,0,0,.217-.217A.217.217,0,0,0,101-4329.248Z" transform="translate(-251.323 -10.378)" fill="#e00c7b"/>
  </g>
</svg>
